<svg xmlns="http://www.w3.org/2000/svg" width="200" height="209" fill="none" viewBox="0 0 200 209"> <path fill="#B89FD4" d="M100 208.297c55.228 0 100-44.008 100-98.294 0-54.286-44.772-98.294-100-98.294S0 55.717 0 110.003c0 54.286 44.772 98.294 100 98.294Z"/> <mask id="a" width="200" height="198" x="0" y="11" maskUnits="userSpaceOnUse" style="mask-type:luminance"> <path fill="#fff" d="M100 208.297c55.228 0 100-44.008 100-98.294 0-54.286-44.772-98.294-100-98.294S0 55.717 0 110.003c0 54.286 44.772 98.294 100 98.294Z"/> </mask> <g mask="url(#a)"> <path fill="#6C2B8C" d="M219.125 145.221H-13.973v63.189h233.098v-63.189Z"/> </g> <path fill="#FDD4D9" d="M64.973 121.022c-4.827 2.171-10.71 3.583-14.1 4.146-6.736 1.135-18.136 3.02-20.145-7.104-1.628-8.149 2.845-11.429 17.072-13.35 5.9-.796 10.946-.831 14.937-.09-4.455 1.01-12.3 3.754-10.346 10.25 1.846 6.103 8.518 6.505 12.573 6.148h.009Z"/> <path fill="#D99EA3" d="m46.684 107.814-.473 1.725 19.382 5.031.463-1.725-19.372-5.031Z"/> <path fill="#FDD4D9" d="M74.009 112.435c.564 2.743-1.537 5.093-4.727 7.005a30.323 30.323 0 0 1-3.064 1.582c-4.055.358-10.727-.044-12.573-6.148-1.963-6.496 5.891-9.23 10.346-10.249a21.23 21.23 0 0 1 3.1.804c3.827 1.332 6.236 3.655 6.918 7.006Zm102.963 60.326c-18.346 21.714-46.019 35.538-76.973 35.538-2.091 0-4.164-.063-6.218-.188l-34.219-28.443 33.41-92.012 57.591 27.898c14.936 7.238 24.636 21.928 25.309 38.29.272 6.514.627 13.243 1.091 18.917h.009Z"/> <path fill="#FDD4D9" d="M21.838 67.119c5.345-8.704 20.318-1.76 73.29 25.887 12.246 6.389 17.71 14.136 14.755 20.534-2.954 6.407-18.518.679-24.445-2.162-47.455-22.805-70.691-32.723-63.61-44.26h.01Z"/> <path fill="#fff" stroke="#4F1E68" stroke-width="5.093" d="M141.083 2.693H59.565c-3.69 0-6.682 2.941-6.682 6.568V173.1c0 3.627 2.991 6.567 6.682 6.567h81.518c3.69 0 6.682-2.94 6.682-6.567V9.261c0-3.627-2.992-6.568-6.682-6.568Z"/> <path fill="#DCCFEA" d="M145.815 145.22H55.182c-.51-40.721-.367-40.935-.367-41.436V9.172c0-2.485 2.055-4.504 4.582-4.504h81.837c2.527 0 4.581 2.02 4.581 4.504v94.612c0 .501.51.715 0 41.436Z"/> <path fill="#fff" d="M136.573 96.234H65.446l-2.727-2.68V15.062l2.727-2.681h71.127l2.728 2.68v78.493l-2.728 2.68Z"/> <path fill="#C0C9DB" d="M131.218 23.781H94.391v7.193h36.827v-7.193Zm0 52.509H94.391v7.192h36.827V76.29Z"/> <path fill="#37F826" d="M131.218 50.268H94.391v7.193h36.827v-7.193Z"/> <path fill="#C0C9DB" d="M89.184 79.695c0 5.334-4.673 9.66-10.091 9.66-5.418 0-9.827-4.326-9.827-9.66 0-5.335 4.4-9.66 9.827-9.66s10.09 4.325 10.09 9.66Z"/> <path fill="#fff" d="M75 81.454v-7.48h8.464l-.01 7.587"/> <path fill="#fff" d="M77.555 89.093c.136-.545.181-2.823.436-4.101a.72.72 0 0 0-.7-.867h-1.582a.715.715 0 0 1-.709-.724v-1.965l8.454.107.064 1.832a.709.709 0 0 1-.709.741h-1.4a.72.72 0 0 0-.7.867c.255 1.269.3 3.547.436 4.101 0 0-.536.25-2.063.25-1.527 0-1.527-.25-1.527-.25v.01Z"/> <path fill="#6C2B8C" d="M141.253 153.369H60.762v18.399h80.491v-18.399Z"/> <path fill="#000" d="m102.918 167.854 35.818-.447-2.218-7.774-18.764-.17-14.836 8.391Z"/> <path fill="#FDD4D9" d="m169.28 150.197-22.118 41.668c-11.691-13.654-10.691-29.506-10.691-29.506l-16.136.241s-10.746 4.584-15.036 5.201c-10.3 1.474-15.891-1.618-17.346-4.808 4.373 1.171 9.646-1.403 13.427-3.896 4.864-3.208 6.773-11.5 7.2-13.69 6.228-3.619 12.246-6.505 15.255-6.407 8.882.286 29.354-.697 34.7 2.565 5.936 3.628 10.755 8.614 10.755 8.614l-.01.018Z"/> <path fill="#D99EA3" d="m138.282 162.465-1.818-.108c-.018.233-.909 15.951 10.691 29.498l1.391-1.153c-11.055-12.903-10.282-28.094-10.273-28.246"/> <path fill="#FDD4D9" d="M108.571 145.416c-.427 2.189-2.327 10.482-7.2 13.69-3.782 2.493-9.055 5.066-13.427 3.896a4.54 4.54 0 0 1-.21-.545c-.436-1.403-.09-2.77.991-3.735 1.773-1.591 9.864-7.355 18.037-12.234.6-.366 1.209-.723 1.809-1.063v-.009Zm-38.499 20.018c-.127 3.27-2.682 5.272-5.891 6.389a17.34 17.34 0 0 1-2.055.58c-3.736-.42-11.581-2.216-11.236-9.972.327-7.372 8.81-8.033 13.427-7.837 1.046.572 1.918 1.198 2.646 1.886 2.427 2.288 3.245 5.227 3.1 8.954h.009Z"/> <path fill="#FDD4D9" d="M50.89 162.431c-.345 7.757 7.5 9.553 11.236 9.973-3.154.714-6.572.732-8.809.348-7.282-1.233-19.6-4.378-18.372-14.807.981-8.355 8.727-8.783 21.572-6.022 3.264.697 5.828 1.581 7.791 2.663-4.627-.197-13.1.464-13.427 7.836l.009.009Zm9.392-29.846c-5.31-.107-13.728-1.653-17.028-2.583-6.573-1.85-16.736-4.709-14.073-14.69 2.137-8.034 9.173-9.079 22.837-4.736 5.663 1.805 10.227 3.923 13.5 6.291-4.464-.992-12.736-1.877-13.846 4.816-1.027 6.282 4.8 9.49 8.61 10.902Z"/> <path fill="#FDD4D9" d="M71.083 128.178c-.71 2.707-3.637 3.932-7.355 4.289-1.1.107-2.264.143-3.454.116-3.819-1.403-9.646-4.62-8.61-10.902 1.1-6.684 9.382-5.799 13.846-4.816a20.076 20.076 0 0 1 2.436 2.046c2.864 2.833 4 5.952 3.137 9.267ZM50.62 141.762c-.973 5.808 3.727 8.909 7.472 10.437-4.7.09-9.827-.482-12.918-1.367-6.473-1.85-17.491-4.995-14.846-14.824 2.137-7.927 7.855-9.982 21.328-5.648 5.99 1.921 10.4 4.093 13.3 6.523-4.828-1.018-13.219-1.778-14.337 4.879Z"/> <path fill="#FDD4D9" d="M68.811 147.23c-.627 2.377-2.827 3.727-5.709 4.406-1.518.357-3.227.527-5 .563-3.745-1.528-8.445-4.629-7.472-10.437 1.118-6.649 9.5-5.889 14.336-4.879 1.1.929 1.982 1.885 2.645 2.886 1.519 2.287 1.91 4.772 1.2 7.461Z"/> <path fill="#C0C9DB" d="M89.18 27.642c0 5.308-4.645 9.615-10.054 9.615-5.41 0-9.782-4.307-9.782-9.615s4.382-9.615 9.782-9.615 10.054 4.307 10.054 9.615Z"/> <path fill="#fff" d="M78.823 28.205a3.653 3.653 0 0 0-2.573-1.045v-3.726c2.046 0 3.91.822 5.254 2.144l-2.681 2.636v-.009Z"/> <path fill="#fff" d="M76.479 22.414h-2.6v5.594h2.6v-5.594Zm2.345 5.792a3.528 3.528 0 0 1 1.064 2.529h3.8c0-2.01-.837-3.842-2.182-5.165l-2.682 2.636Z"/> <path fill="#fff" d="M79.023 30.51v2.556h5.691v-2.555h-5.69Z"/> <path fill="#D99EA3" d="m38.336 126.758-.363 1.76 19.645 3.887.364-1.751-19.646-3.896Zm6.28 22.027-.3 1.769 14.282 2.342.3-1.761-14.282-2.35Z"/> <path fill="#37F826" d="M87.27 47.897c3.282 4.289 2.181 10.544-2.191 13.77-4.364 3.225-10.564 2.359-13.846-1.94-3.282-4.288-2.4-10.383 1.973-13.608 4.364-3.226 10.782-2.52 14.064 1.778Z"/> <mask id="b" width="21" height="20" x="69" y="44" maskUnits="userSpaceOnUse" style="mask-type:luminance"> <path fill="#fff" d="M87.27 47.895c3.282 4.289 2.181 10.544-2.191 13.77-4.364 3.226-10.564 2.359-13.846-1.94-3.282-4.288-2.4-10.383 1.973-13.608 4.364-3.226 10.782-2.52 14.064 1.778Z"/> </mask> <g mask="url(#b)"> <path fill="#fff" d="m81.362 64.39-1.1-9.714H77.78l-1.128 9.713h4.71Z"/> </g> <path fill="#000" d="M78.208 49.343h2.063v2.001l2.71-2.01 2.59.027v5.129h-2.59l-2.71-1.823v2.01H77.79v-.035c-.019-1.51-1.682-2.44-3.01-1.671l-2.09 1.206-.71-.634c.6-1.564 2.21-4.2 6.228-4.2Z"/> </svg> 