<svg xmlns="http://www.w3.org/2000/svg" width="200" height="209" fill="none" viewBox="0 0 200 209"> <path fill="#B89FD4" d="M199.999 110.042c0-54.286-44.771-98.294-100-98.294C44.772 11.748 0 55.756 0 110.042c0 54.286 44.771 98.294 100 98.294 55.228 0 99.999-44.008 99.999-98.294Z"/> <mask id="a" width="200" height="198" x="0" y="11" maskUnits="userSpaceOnUse" style="mask-type:luminance"> <path fill="#fff" d="M199.999 110.042c0-54.286-44.771-98.294-100-98.294C44.772 11.748 0 55.756 0 110.042c0 54.286 44.771 98.294 100 98.294 55.228 0 99.999-44.008 99.999-98.294Z"/> </mask> <g mask="url(#a)"> <path fill="#6C2B8C" d="M203.927 145.648H-6.445v74.043h210.372v-74.043Z"/> <path fill="#4F1E68" d="M45.364 121.454h108.4c.672 0 1.218.536 1.218 1.198l-.036 66.688c0 .661-.546 1.197-1.219 1.197H51.482l-7.345-7.22v-60.674c0-.661.545-1.198 1.218-1.198l.009.009Z"/> <path fill="#fff" d="M44.145 116.609H154.99l-.037 69.092h-101.8l-9-8.847v-60.236l-.008-.009Z"/> <path fill="#C0C9DB" d="M142.245 132.57H84.727v7.193h57.518v-7.193Zm0 28.897H84.727v7.193h57.518v-7.193Zm-68.108-38.936c3.955 5.182 2.627 12.724-2.645 16.611-5.273 3.887-12.746 2.842-16.7-2.341-3.955-5.183-2.891-12.528 2.381-16.415 5.273-3.887 13.01-3.038 16.964 2.145Z"/> <mask id="b" width="25" height="24" x="52" y="124" maskUnits="userSpaceOnUse" style="mask-type:luminance"> <path fill="#fff" d="M74.137 128.931c3.955 5.183 2.627 12.725-2.645 16.612-5.273 3.887-12.746 2.841-16.7-2.341-3.955-5.183-2.891-12.528 2.381-16.415 5.273-3.888 13.01-3.039 16.964 2.144Z"/> </mask> <g mask="url(#b)"> <path fill="#fff" d="m67.01 141.776-1.327-11.438h-3l-1.355 11.438h5.682Z"/> </g> <path fill="#C0C9DB" d="M74.137 157.874c3.955 5.183 2.627 12.725-2.645 16.612-5.273 3.887-12.746 2.842-16.7-2.341-3.955-5.183-2.891-12.528 2.381-16.415 5.273-3.887 13.01-3.038 16.964 2.144Z"/> <path fill="#4F1E68" d="M63.19 123.903h2.49v2.413l3.274-2.421 3.127.026-.018 6.193h-3.118l-3.273-2.198v2.421h-3v-.044c-.018-1.823-2.027-2.94-3.627-2.02l-2.519 1.457-.854-.76c.727-1.894 2.664-5.067 7.518-5.067Z"/> <path fill="#fff" d="M71 159.094H58.582c-.276 0-.5.22-.5.491v11.492c0 .271.224.491.5.491H71c.276 0 .5-.22.5-.491v-11.492a.496.496 0 0 0-.5-.491Z"/> <path fill="#4F1E68" d="M58.58 158.84h12.428a.5.5 0 0 1 .5.491v3.003H58.09v-3.003a.5.5 0 0 1 .5-.491h-.01Z"/> </g> <path fill="#fff" d="M44.8 10.293h101.446l9.118 8.963v90.224H44.801V10.293Z"/> <path fill="#37F826" d="M169.9 19.836c0 8.006-7.009 14.494-15.155 14.494C146.6 34.33 140 27.842 140 19.836c0-8.007 6.6-14.494 14.745-14.494 8.146 0 15.155 6.487 15.155 14.494Z"/> <path fill="#000" d="m147.074 18.477 5.882 8.159 13.436-15.987-.663-.643-12.646 10.589-5.254-2.931-.746.813h-.009Z"/> <path fill="#321242" d="M44.228 101.385c0-20.061 9.427-21.866 19.072-26.11 8.828-3.888 20.4-7.882 20.4-7.882l3.919-3.145 19.618-.385 9.054 7.033c23.146 6.871 38.682 8.042 38.682 32.669 0 4.102-.191 12.51-.191 12.51H44.219v-14.681l.009-.009Z"/> <path fill="#DCCFEA" d="m101.78 81.654-5.427 7.059c-.273.429-.909.41-1.173-.027l-13.227-20.91 5.236-3.735 14.591 17.613Zm6.439-.222 3.763 7.077c.173.321.664.25.737-.108l3.582-17.514-4.446-4.075-3.636 14.61v.01Z"/> <path fill="#8B670A" d="M126.826 31.184c-1.064-.643-5.209-2.01-6.028-3.806-.39-.858-3.554-6.649-3.99-7.82-.519-1.402-1.173-2.716-2.009-3.913-.4-.939-.81-2.029-1.419-2.726-.027-.027-11.318-12.939-31.636-.5-24.164 14.798 5.364 45.385 5.364 45.385l.081 6.228c4.382 5.469 10.746 13.055 14.591 17.613l6.437-.224 5.545-23.662s5.682-1.367 6.655-1.59c4.6-1.055 6.909-3.181 7.109-6.926.127-2.35-2.482-9.686-2.273-10.383.127-.411.155-.849.245-1.278.082-.42.282-.715.728-.911.672-.304 1.3-.733 1.945-1.09.8-.447 1.491-2.681-1.345-4.397Z"/> <path fill="#483709" d="M102.18 59.52s10.609-1.537 11.581-1.76l-1.281 4.253-10.3-2.493ZM84.535 33.13l2.21 2.708 31.045-14.36-1.828-3.726L84.535 33.13Z"/> <path fill="#332708" d="m89.618 30.549.591 11.84s7.155-6.649 6.264-17.649l-6.864 5.809h.01Z"/> <path fill="#332708" d="M92.674 37.206s-1.519-9.99-1.991-9.589c-.346.286-13.282 7.828-16.355 11.34C78.492 49.063 87.12 57.82 87.12 57.82l1.336-1.608a7.168 7.168 0 0 0 1.655-5.013l-.4-6.854 2.964-7.13v-.01Z"/> <path fill="#8B670A" d="M92.573 46.866c-4.4.849-7.819-3.762-8.028-7.453-.218-3.806 5.328-7.917 10.337-.992"/> <path fill="#483709" d="M87.57 36.831c-.69.43-1.127 1.189-1.272 1.984-.146.795-.028 1.609.218 2.377.7 2.216 2.436 3.717 4.436 4.852.328.188.737.358 1.073.197.31-.152.436-.527.436-.867 0-.733-.39-1.43-.909-1.966-.436-.456-1.009-.947-.918-1.572.082-.563.682-.885 1.136-1.243.61-.473 1.064-1.197 1.019-1.966-.118-1.974-3.791-2.69-5.219-1.796Z"/> <path fill="#37F826" d="M113.427 10.926c-5.455-8.498-15.246-14.52-31.673-6.38C60.064 15.296 71.38 35.66 71.38 35.66m1.848 5.853 42.727-23.751.855 1.805 8.773-6.068s-.673-1.689-1.719-1.68c-2.681.027-9.127 1.234-9.127 1.234l-1.309-2.127L71.383 35.66l-.055 4.745c-.009.965 1.046 1.582 1.9 1.108Z"/> <path fill="#000" d="m115.962 17.753 9.618-4.253c.364.652 1.228 2.913-.736 4.173l-7.055 3.807-1.836-3.727h.009Z"/> <path fill="#321242" d="m98.484 20.63 2.345-1.44-1.836-2.868-2.337 1.439 1.828 2.868ZM83.7 29.039l2.336-1.439-1.836-2.877-2.337 1.447 1.837 2.87Z"/> <path fill="#483709" d="M115.318 29.876c.527-.257.638-1.092.248-1.866s-1.133-1.193-1.66-.937c-.526.256-.637 1.091-.247 1.865s1.133 1.194 1.659.938Z"/> <path stroke="#483709" stroke-miterlimit="10" stroke-width="2.214" d="M126.319 43.2c-3.091 1.055-7.682-.106-7.682-.106"/> </svg> 