<svg xmlns="http://www.w3.org/2000/svg" width="200" height="209" fill="none" viewBox="0 0 200 209"> <path fill="#B89FD4" d="M200 110.183c0-54.287-44.772-98.294-100-98.294S0 55.896 0 110.183c0 54.286 44.772 98.294 100 98.294s100-44.008 100-98.294Z"/> <mask id="a" width="200" height="198" x="0" y="11" maskUnits="userSpaceOnUse" style="mask-type:luminance"> <path fill="#fff" d="M200 110.183c0-54.287-44.772-98.294-100-98.294S0 55.896 0 110.183c0 54.286 44.772 98.294 100 98.294s100-44.008 100-98.294Z"/> </mask> <g mask="url(#a)"> <path fill="#6C2B8C" d="M203.927 145.793H-6.445v74.042h210.372v-74.042Z"/> <path fill="#000" d="M141.747 183.826H59.519v39.496h82.228v-39.496Z"/> <path fill="#F5B5BD" d="m116.098 67.024-.054-15.45-31.728.26.246 14.833s3.654 9.436 8.036 12.09c4.782 2.895 9.273 3.092 13.473 1.135 5.191-2.43 10.036-12.868 10.036-12.868h-.009Z"/> <path fill="#4F1E68" d="m141.818 183.827-.646-67.242h23.4s.555-14.977-3.227-23.716c-2.882-6.666-12.064-12.653-18.609-14.333l-26.655-8.927c-2.609 8.909-12.473 15.763-12.473 15.763l-6.636.09s-9.09-4.63-12.473-16.193l-25.872 9.276c-6.546 1.68-15.728 7.658-18.61 14.333-3.781 8.739-3.227 23.653-3.227 23.653l23.782.036-1.055 67.26h82.301Z"/> <path fill="#000" d="M141.601 170.607H59.683l-.136 6.819H141.6v-6.819Z"/> <path fill="#6C2B8C" d="m65.426 208.534 1-31.534s-.028-.045 0-.045h6.063s.055.018.055.045l1.89 34.814s-9.008-3.253-9.008-3.28Z"/> </g> <path fill="#321242" d="M102.197 137.992 59.97 154.559l-.064 4.075 38.782-13.574 3.509-7.068Z"/> <path fill="#321242" d="m99.27 137.992 42.227 16.567.1 6.353-40.437-15.646-1.89-7.274Z"/> <path fill="#F5B5BD" d="M148.053 155.274c-11.636 0-81.49-18.65-81.49-18.65l.418-13.055c17.882 2.1 41.881 2.038 68.809 4.129l.018-11.501 28.764.367s-.964 25.342-1.882 30.185c-1.337 6.997-8.691 8.507-14.637 8.507v.018Z"/> <path fill="#F5B5BD" d="M54.189 155.415c13.173 0 81.6-28.049 81.6-28.049l.018-5.719s-3.236-2.61-7.136-2.69c-2.846-.063-23.6 1.457-39.755 4.397l-22.345 4.7V116.58H36.789s.045 24.815 2.346 30.328c2.754 6.595 7.581 8.507 15.063 8.507h-.009Z"/> <path fill="#DD858C" d="M88.917 123.348c-20.954-5.254-22.863-2.547-25.99-.527-.946.608-3.755 6.818-3.755 6.818m26.996-68.353C87.841 65.361 92.895 71 100.195 71c7.3 0 12.309-5.96 13.873-10.035l-27.9.321Z"/> <path fill="#F5B5BD" d="M79.223 28.314v10.974s-.036 3.217.4 8.855c1.119 14.387 10.319 19.534 20.355 19.534s19.245-5.147 20.354-19.534c.555-7.104.491-8.793.491-8.793l-.091-10.839"/> <path fill="#DD858C" d="M108.48 40.032c.645.053 1.234-.673 1.315-1.622.082-.949-.376-1.762-1.021-1.815-.645-.054-1.234.673-1.316 1.622-.081.949.376 1.761 1.022 1.815Zm-18.401 0c-.645.053-1.234-.673-1.316-1.622-.081-.949.376-1.762 1.021-1.815.646-.054 1.235.673 1.316 1.622.082.949-.376 1.761-1.021 1.815Z"/> <path stroke="#DD858C" stroke-miterlimit="10" stroke-width="2.214" d="M94.707 53.817c2.782 1.188 7.973 1.072 10.536-.313m-5.591-14.932a1569.1 1569.1 0 0 0-3.109 9.696s4.027.607 5.654.723"/> <path fill="#37F826" d="M122.815 26.616s-.227-5.603-1.809-10.803c-2.218-7.3-11.9-11.733-15.582-11.733 0-1.868-1.436-3.387-3.2-3.387h-4.445c-1.773 0-3.2 1.51-3.2 3.387-3.618 0-13.364 4.432-15.582 11.733-1.582 5.2-1.809 10.803-1.809 10.803l-3.31 2.046v4.46h52.246v-4.46l-3.309-2.046Z"/> <path fill="#fff" d="m109.589 26.018-4.163-.581V4.08l4.163.635v21.303Zm-19.175.001 4.155-.572V4.09c-1.4-.214-2.791 0-4.155.635v21.303-.01Z"/> <path fill="#F5B5BD" d="M123.732 36.49c0 2.815-1.854 7.05-4.145 7.05-2.291 0-4.146-4.235-4.146-7.05 0-2.815 1.855-5.094 4.146-5.094s4.145 2.28 4.145 5.094Zm-39.199 0c0 2.815-1.854 7.05-4.145 7.05-2.291 0-4.146-4.235-4.146-7.05 0-2.815 1.855-5.094 4.146-5.094 2.29 0 4.145 2.28 4.145 5.094Z"/> <path fill="#37F826" d="M77.189 26.616S83.498 21.7 99.998 21.7s22.809 4.915 22.809 4.915v3.315H77.18v-3.315h.009Z"/> <path fill="#000" d="M73.879 31.513s6.318-4.36 26.127-4.36c19.809 0 26.127 4.36 26.127 4.36v1.608H73.888v-1.608h-.01Z"/> <path fill="#DD858C" d="M135.79 123.578v-2.609l-42.009 16.299 4.91 1.394 37.099-15.084Z"/> <path fill="#6C2B8C" d="m124.774 109.693-14.237.215c-.863-.939-1.345-1.457-2.209-2.395v-3.691c.846-.965 1.327-1.501 2.182-2.457l14.236-.215c.864.939 1.346 1.457 2.209 2.395v3.691c-.845.965-1.327 1.501-2.181 2.457Z"/> <path fill="#fff" d="M186.153 61.392H140.09v-11.59h-10.055v-2.528l10.055-8.48V12.826h46.063v48.566Z"/> <path fill="#37F826" d="M175.707 27.471c5.055 6.622 3.364 16.272-3.382 21.25-6.736 4.968-16.3 3.636-21.363-2.994-5.055-6.621-3.7-16.022 3.045-21 6.736-4.968 16.636-3.877 21.7 2.744Z"/> <mask id="b" width="32" height="31" x="147" y="21" maskUnits="userSpaceOnUse" style="mask-type:luminance"> <path fill="#fff" d="M175.707 27.467c5.055 6.622 3.364 16.273-3.382 21.25-6.736 4.968-16.3 3.636-21.363-2.994-5.055-6.621-3.7-16.022 3.045-21 6.736-4.967 16.636-3.877 21.7 2.744Z"/> </mask> <g mask="url(#b)"> <path fill="#fff" d="m166.597 52.934-1.7-14.994h-3.836l-1.737 14.994h7.273Z"/> </g> <path fill="#000" d="M161.718 29.713h3.182v3.083l4.182-3.1 4 .035-.018 7.917h-3.982l-4.182-2.806v3.101h-3.836v-.054c-.027-2.332-2.6-3.762-4.636-2.582l-3.228 1.859-1.091-.974c.928-2.422 3.409-6.479 9.609-6.479Z"/> <path fill="#fff" d="M71.493 164.237h-4.855l-.1 4.852c0 .044-.054.071-.09.044l-6.819-4.905s.01-.009 0-.009l-6.363.062s-.055.027-.055.054l.027 12.626s.028.054.055.054h6.336s.018 0 .027-.009l6.791-4.45s.082 0 .082.044l-.109 4.299s-.027.053 0 .053h6.118c.046-3.788 4.237-5.585 7.555-3.663l5.063 2.922s.046.008.064 0l1.7-1.511s.027-.035.018-.062c-1.5-3.896-5.49-10.392-15.445-10.392v-.009Z"/> <path fill="#4F1E68" d="M73.545 195.298H59.636c-1 0-1.8-.796-1.8-1.77v-7.935c0-.982.81-1.769 1.8-1.769h13.309l.6 11.483v-.009Z"/> <path fill="#6C2B8C" d="M73.545 195.298h6.891a.966.966 0 0 0 .973-.956v-9.579a.966.966 0 0 0-.973-.956h-7.49l.6 11.482v.009Z"/> <path fill="#321242" d="M79.219 33.121v6.166s2.745-1.233 5.318-6.166h-5.318Zm41.607 0v6.166s-2.745-1.233-5.318-6.166h5.318Z"/> <path fill="#6C2B8C" d="m103.609 85.368 4.028 8.802a.876.876 0 0 0 1.536.09l10.682-22.43a1.828 1.828 0 0 0-.046-1.68c-.981-1.742-2.263-3.065-3.727-4.164l-12.473 19.382Zm-6.635.088-4.027 8.364a.877.877 0 0 1-1.537.09L80.892 71.784a1.846 1.846 0 0 1 .237-1.965l3.372-4.182 12.473 19.82Z"/> </svg> 